<?xml version="1.0" standalone="no"?><!DOCTYPE svg PUBLIC "-//W3C//DTD SVG 1.1//EN" "http://www.w3.org/Graphics/SVG/1.1/DTD/svg11.dtd"><svg class="icon" width="200px" height="200.00px" viewBox="0 0 1024 1024" version="1.1" xmlns="http://www.w3.org/2000/svg"><path d="M817.303704 883.674074L644.740741 271.17037l140.325926-37.925926 172.562963 612.503704-140.325926 37.925926z m-276.85926-5.688889c0 1.896296 0 5.688889-1.896296 7.585185h-144.118518c0-1.896296-1.896296-3.792593-1.896297-7.585185v-777.481481c0-3.792593 0-5.688889 1.896297-7.585185h142.222222c0 1.896296 1.896296 3.792593 1.896296 7.585185l1.896296 777.481481z m472.177778-47.407407l-172.562963-612.503704c-3.792593-13.274074-13.274074-26.548148-24.651852-34.133333-13.274074-7.585185-28.444444-11.377778-43.614814-7.585185L625.777778 218.074074c-11.377778 1.896296-20.859259 9.481481-26.548148 18.962963V100.503704c0-36.02963-24.651852-62.577778-54.992593-62.577778h-151.703704c-30.340741 0-54.992593 28.444444-54.992592 62.577778v775.585185c0 36.02963 24.651852 62.577778 54.992592 62.577778h151.703704c30.340741 0 54.992593-28.444444 54.992593-62.577778V320.474074l163.081481 576.474074c7.585185 24.651852 30.340741 43.614815 54.992593 43.614815 3.792593 0 9.481481 0 13.274074-1.896296l147.911111-39.822223c15.17037-3.792593 26.548148-13.274074 34.133333-28.444444 3.792593-11.377778 5.688889-24.651852 0-39.822222zM66.37037 885.57037h151.703704V233.244444v-1.896296h-151.703704v654.222222c0-1.896296 0-1.896296 0 0z m153.6 54.992593H62.577778c-30.340741 0-54.992593-26.548148-54.992593-56.888889V233.244444c0-32.237037 24.651852-56.888889 54.992593-56.888888h157.392592c30.340741 0 54.992593 26.548148 54.992593 56.888888v648.533334c0 34.133333-24.651852 58.785185-54.992593 58.785185z" fill="#2c2c2c" /></svg>