<?xml version="1.0" standalone="no"?><!DOCTYPE svg PUBLIC "-//W3C//DTD SVG 1.1//EN" "http://www.w3.org/Graphics/SVG/1.1/DTD/svg11.dtd"><svg class="icon" width="64px" height="64.00px" viewBox="0 0 1024 1024" version="1.1" xmlns="http://www.w3.org/2000/svg"><path d="M512 960c-254.784 0-384-59.904-384-178.112 0-84.416 133.12-139.648 265.856-158.336v-17.536c-79.68-58.24-118.464-159.936-118.464-309.952C275.392 150.784 362.368 64 508.096 64h7.808c145.792 0 232.768 86.784 232.768 232.064 0 56.448 0 223.808-117.568 310.144l-0.384 17.408C763.2 642.432 896 697.6 896 781.888 896 900.096 766.784 960 512 960zM508.032 120c-80.256 0-175.872 29.952-175.872 172.8 0 137.344 34.56 225.92 105.536 270.72 8.96 5.696 14.464 15.872 14.464 26.88v62.72a30.848 30.848 0 0 1-26.944 31.232c-145.728 15.232-242.368 71.232-242.368 101.568 0 97.6 179.008 118.08 329.152 118.08 150.208 0 329.152-20.48 329.152-118.08 0-30.336-96.64-86.4-242.368-101.568a30.912 30.912 0 0 1-26.88-31.936l1.28-62.72a31.744 31.744 0 0 1 14.4-26.176c71.168-44.928 104.32-130.944 104.32-270.72 0-142.848-95.68-172.8-175.936-172.8h-7.936z" fill="#819c88" /></svg>