<?xml version="1.0" standalone="no"?><!DOCTYPE svg PUBLIC "-//W3C//DTD SVG 1.1//EN" "http://www.w3.org/Graphics/SVG/1.1/DTD/svg11.dtd"><svg class="icon" width="128px" height="124.12px" viewBox="0 0 1056 1024" version="1.1" xmlns="http://www.w3.org/2000/svg"><path d="M1046.4 899.2l-115.2-640c-6.4-35.2-38.4-57.6-73.6-51.2l-131.2 22.4c-35.2 6.4-57.6 38.4-51.2 73.6l115.2 643.2c6.4 35.2 38.4 57.6 73.6 51.2l131.2-22.4c32-6.4 57.6-41.6 51.2-76.8z m-195.2 35.2L736 291.2l131.2-22.4 115.2 643.2-131.2 22.4zM550.4 0h-147.2c-35.2 0-64 28.8-64 64v854.4c0 35.2 28.8 64 64 64h147.2c35.2 0 64-28.8 64-64V64c0-35.2-28.8-64-64-64z m0 918.4h-147.2V64h147.2v854.4zM211.2 214.4H64c-35.2 0-64 28.8-64 64v640c0 35.2 28.8 64 64 64h147.2c35.2 0 64-28.8 64-64v-640c0-35.2-28.8-64-64-64z m0 704H64v-640h147.2v640z" fill="#819C88" /></svg>