<?xml version="1.0" standalone="no"?><!DOCTYPE svg PUBLIC "-//W3C//DTD SVG 1.1//EN" "http://www.w3.org/Graphics/SVG/1.1/DTD/svg11.dtd"><svg class="icon" width="128px" height="128.00px" viewBox="0 0 1024 1024" version="1.1" xmlns="http://www.w3.org/2000/svg"><path d="M298.666667 170.666667h426.666666a128 128 0 0 1 128 128v213.333333c0 188.522667-152.810667 341.333333-341.333333 341.333333H298.666667a128 128 0 0 1-128-128V298.666667a128 128 0 0 1 128-128z m0 85.333333a42.666667 42.666667 0 0 0-42.666667 42.666667v426.666666a42.666667 42.666667 0 0 0 42.666667 42.666667h213.333333c141.376 0 256-114.624 256-256V298.666667a42.666667 42.666667 0 0 0-42.666667-42.666667H298.666667z" fill="#999999" /><path d="M320 384m21.333333 0l341.333334 0q21.333333 0 21.333333 21.333333l0 42.666667q0 21.333333-21.333333 21.333333l-341.333334 0q-21.333333 0-21.333333-21.333333l0-42.666667q0-21.333333 21.333333-21.333333Z" fill="#999999" /><path d="M320 554.666667m21.333333 0l128 0q21.333333 0 21.333334 21.333333l0 42.666667q0 21.333333-21.333334 21.333333l-128 0q-21.333333 0-21.333333-21.333333l0-42.666667q0-21.333333 21.333333-21.333333Z" fill="#999999" /></svg>