<?xml version="1.0" standalone="no"?><!DOCTYPE svg PUBLIC "-//W3C//DTD SVG 1.1//EN" "http://www.w3.org/Graphics/SVG/1.1/DTD/svg11.dtd"><svg class="icon" width="64px" height="64.00px" viewBox="0 0 1024 1024" version="1.1" xmlns="http://www.w3.org/2000/svg"><path d="M511.998465 65.279772c-246.706845 0-446.708971 200.01543-446.708971 446.709995 0 246.700705 200.001103 446.731484 446.708971 446.731484 246.708891 0 446.711018-200.030779 446.711018-446.731484C958.709483 265.295202 758.707356 65.279772 511.998465 65.279772zM603.347986 360.490308l41.326221-41.326221c13.770632-18.351973 41.326221-18.351973 59.691497 0 18.365276 13.777795 18.365276 41.326221 0 59.691497l-41.326221 41.311895c-13.770632 18.365276-41.311895 18.365276-59.691497 0C584.997036 406.389684 584.997036 378.855584 603.347986 360.490308zM236.062925 525.766538l0-27.541263c0-18.358113 13.770632-27.548426 27.541263-27.548426l91.842755 0c13.770632 0 27.526937 13.770632 27.526937 27.548426l0 27.541263c0 18.365276-13.756305 27.555589-32.136931 27.555589l-87.233783 0C249.833557 553.322128 236.062925 539.53717 236.062925 525.766538zM419.705456 663.502529l-41.311895 41.326221c-13.784958 18.365276-41.326221 18.365276-59.69252 0-18.35095-13.770632-18.35095-41.326221 0-59.691497l41.326221-41.327244c13.770632-18.35095 41.311895-18.35095 59.677171 0C438.070732 617.59599 438.070732 645.137253 419.705456 663.502529zM419.705456 420.167478c-18.365276 18.365276-45.906539 18.365276-59.677171 0l-41.326221-41.311895c-18.35095-13.784958-18.35095-41.319058 0-59.691497 13.770632-18.351973 41.326221-18.351973 59.69252 0l41.311895 41.326221C438.070732 374.260939 438.070732 401.808342 419.705456 420.167478zM552.861128 759.925602c0 13.769608-13.784958 27.54024-27.555589 27.54024l-27.541263 0c-13.771655 0-27.556613-13.770632-27.556613-27.54024l0-87.233783c0-13.784958 13.785981-27.555589 27.556613-27.555589l27.541263 0c18.365276 0 27.555589 9.174963 27.555589 27.555589L552.861128 759.925602zM552.861128 351.299995c0 13.770632-13.784958 27.555589-27.555589 27.555589l-27.541263 0c-13.771655 0-27.556613-13.784958-27.556613-27.555589l0-87.225597c0-13.778818 9.190313-27.549449 27.556613-27.549449l27.541263 0c18.365276 0 27.555589 13.770632 27.555589 27.549449L552.861128 351.299995zM704.365704 704.82875c-13.770632 18.365276-41.326221 18.365276-59.691497 0l-41.326221-41.326221c-18.351973-13.770632-18.351973-41.311895 0-59.69252 13.784958-18.35095 41.326221-18.35095 59.691497 0l41.326221 41.327244C722.73098 658.907884 722.73098 686.46245 704.365704 704.82875zM787.003819 525.766538c0 13.770632-13.770632 27.555589-27.541263 27.555589l-87.247086 0c-13.770632 0-27.541263-13.784958-27.541263-27.555589l0-27.541263c0-13.777795 13.770632-27.548426 27.541263-27.548426l87.247086 0c13.770632 0 27.541263 9.18929 27.541263 27.548426L787.003819 525.766538z" fill="#819c88" /></svg>