<?xml version="1.0" standalone="no"?><!DOCTYPE svg PUBLIC "-//W3C//DTD SVG 1.1//EN" "http://www.w3.org/Graphics/SVG/1.1/DTD/svg11.dtd"><svg class="icon" width="128px" height="128.00px" viewBox="0 0 1024 1024" version="1.1" xmlns="http://www.w3.org/2000/svg"><path d="M827.076923 157.538462h-157.538461V78.769231c0-43.323077-35.446154-78.769231-78.769231-78.769231H433.230769C389.907692 0 354.461538 35.446154 354.461538 78.769231v78.769231H196.923077C129.969231 157.538462 78.769231 208.738462 78.769231 275.692308c0 51.2 31.507692 94.523077 78.769231 110.276923V905.846154c0 66.953846 51.2 118.153846 118.153846 118.153846h472.615384c66.953846 0 118.153846-51.2 118.153846-118.153846V385.969231c47.261538-15.753846 78.769231-59.076923 78.769231-110.276923 0-66.953846-51.2-118.153846-118.153846-118.153846z m-354.461538-78.769231h78.76923c23.630769 0 39.384615 15.753846 39.384616 39.384615s-15.753846 39.384615-39.384616 39.384616h-78.76923c-23.630769 0-39.384615-15.753846-39.384616-39.384616s15.753846-39.384615 39.384616-39.384615z m315.076923 748.307692c0 66.953846-51.2 118.153846-118.153846 118.153846H354.461538c-66.953846 0-118.153846-51.2-118.153846-118.153846V393.846154h551.384616v433.230769z m39.384615-512H196.923077c-23.630769 0-39.384615-15.753846-39.384615-39.384615s15.753846-39.384615 39.384615-39.384616h630.153846c23.630769 0 39.384615 15.753846 39.384615 39.384616s-15.753846 39.384615-39.384615 39.384615zM354.461538 866.461538c23.630769 0 39.384615-15.753846 39.384616-39.384615v-315.076923c0-23.630769-15.753846-39.384615-39.384616-39.384615s-39.384615 15.753846-39.384615 39.384615v315.076923c0 23.630769 15.753846 39.384615 39.384615 39.384615z m315.076924 0c23.630769 0 39.384615-15.753846 39.384615-39.384615v-315.076923c0-23.630769-15.753846-39.384615-39.384615-39.384615s-39.384615 15.753846-39.384616 39.384615v315.076923c0 23.630769 15.753846 39.384615 39.384616 39.384615z m-157.538462 0c23.630769 0 39.384615-15.753846 39.384615-39.384615v-315.076923c0-23.630769-15.753846-39.384615-39.384615-39.384615s-39.384615 15.753846-39.384615 39.384615v315.076923c0 23.630769 15.753846 39.384615 39.384615 39.384615z"  /><path d="M275.692308 393.846154H236.307692v39.384615c0-23.630769 15.753846-39.384615 39.384616-39.384615z m472.615384 0c23.630769 0 39.384615 15.753846 39.384616 39.384615v472.615385c0 23.630769-15.753846 39.384615-39.384616 39.384615H275.692308c-23.630769 0-39.384615-15.753846-39.384616-39.384615v78.769231h590.769231V393.846154h-78.769231z"  /></svg>