<?xml version="1.0" standalone="no"?><!DOCTYPE svg PUBLIC "-//W3C//DTD SVG 1.1//EN" "http://www.w3.org/Graphics/SVG/1.1/DTD/svg11.dtd"><svg class="icon" width="128px" height="128.00px" viewBox="0 0 1024 1024" version="1.1" xmlns="http://www.w3.org/2000/svg"><path d="M759.850667 395.178667c18.368 0 33.28 14.4 33.28 32.170666v350.72c0 65.109333-54.613333 117.930667-121.984 117.930667H352.853333c-67.349333 0-121.984-52.821333-121.984-117.952v-350.72c0-17.749333 14.890667-32.149333 33.28-32.149333 18.346667 0 33.258667 14.4 33.258667 32.170666v350.72c0 29.568 24.832 53.589333 55.424 53.589334H671.146667c30.613333 0 55.445333-24.021333 55.445333-53.610667v-350.72c0-17.749333 14.890667-32.149333 33.28-32.149333z m-320.362667 0c18.368 0 33.28 14.4 33.28 32.170666v217.834667c0 17.770667-14.912 32.170667-33.28 32.170667-18.368 0-33.28-14.4-33.28-32.170667V427.349333c0-17.770667 14.912-32.170667 33.28-32.170666z m145.024 0c18.368 0 33.28 14.4 33.28 32.170666v217.834667c0 17.770667-14.912 32.170667-33.28 32.170667-18.368 0-33.28-14.4-33.28-32.170667V427.349333c0-17.770667 14.912-32.170667 33.28-32.170666z m-401.92-56.277334C164.266667 338.901333 149.333333 324.501333 149.333333 306.730667c0-17.749333 14.890667-32.149333 33.28-32.149334l105.834667-0.021333v-28.608c0-65.152 54.613333-117.952 121.962667-117.952h203.178666c67.370667 0 121.962667 52.8 121.962667 117.952v28.608h105.856c17.344 0 31.573333 12.864 33.130667 29.248l0.128 2.922667c0 17.770667-14.890667 32.170667-33.28 32.170666z m430.997333-146.56h-203.178666c-30.613333 0-55.445333 24-55.445334 53.610667v28.629333h314.069334v-28.629333c0-29.610667-24.832-53.610667-55.445334-53.610667z" fill="#819C88" /></svg>