<?xml version="1.0" standalone="no"?><!DOCTYPE svg PUBLIC "-//W3C//DTD SVG 1.1//EN" "http://www.w3.org/Graphics/SVG/1.1/DTD/svg11.dtd"><svg class="icon" width="64px" height="64.00px" viewBox="0 0 1024 1024" version="1.1" xmlns="http://www.w3.org/2000/svg"><path d="M963.9424 520.17664c-1.792 238.32064-192.47104 436.28032-431.04256 445.2352-237.76256 8.92416-443.0592-180.59776-459.008-416.5376-16.0256-237.02016 166.00576-449.23392 401.73056-472.27904 236.04736-23.07584 454.79936 151.43936 484.9152 386.6368 2.41152 18.87744 3.25632 37.92384 3.4048 56.94464 0.25088 33.00352 51.45088 33.024 51.2 0-1.75616-234.1376-168.20736-439.81824-398.31552-486.90688C386.97472-13.76768 149.35552 113.76128 59.76064 329.97888c-90.78784 219.10528-9.93792 472.9344 185.22112 604.7744 195.7888 132.26496 465.39264 98.176 629.39648-68.16256 90.53696-91.83232 139.79648-218.08128 140.75904-346.4192 0.25088-33.024-50.94912-32.9984-51.19488 0.00512z" fill="#819c88" /><path d="M339.26656 735.56992l394.63936-394.64448c23.36768-23.36768-12.83584-59.5712-36.1984-36.20352l-394.64448 394.6496c-23.36768 23.36256 12.83584 59.56608 36.20352 36.1984z" fill="#819c88" /><path d="M733.90592 699.37152l-394.63936-394.6496c-23.36768-23.36256-59.5712 12.83584-36.20352 36.20352 131.54816 131.54816 263.0912 263.10144 394.64448 394.64448 23.36256 23.36768 59.56608-12.83584 36.1984-36.1984z" fill="#819c88" /></svg>