<?xml version="1.0" standalone="no"?><!DOCTYPE svg PUBLIC "-//W3C//DTD SVG 1.1//EN" "http://www.w3.org/Graphics/SVG/1.1/DTD/svg11.dtd"><svg class="icon" width="64px" height="64.00px" viewBox="0 0 1024 1024" version="1.1" xmlns="http://www.w3.org/2000/svg"><path d="M512 93.090909c231.354182 0 418.909091 187.554909 418.909091 418.909091s-187.554909 418.909091-418.909091 418.909091S93.090909 743.354182 93.090909 512 280.645818 93.090909 512 93.090909z m-124.625455 229.748364c-22.388364 24.389818-19.386182 61.137455 6.725819 82.036363l162.816 130.513455-162.792728 130.234182c-26.112 20.898909-29.160727 57.623273-6.772363 82.036363 22.341818 24.413091 61.672727 27.229091 87.808 6.353455l190.370909-152.32c3.630545-2.909091 7.028364-6.074182 10.146909-9.472 33.582545-36.584727 29.067636-91.694545-10.100364-123.066182l-190.370909-152.576c-26.112-20.945455-65.442909-18.129455-87.831273 6.283636z" fill="#d8e1de" /></svg>