<?xml version="1.0" standalone="no"?><!DOCTYPE svg PUBLIC "-//W3C//DTD SVG 1.1//EN" "http://www.w3.org/Graphics/SVG/1.1/DTD/svg11.dtd"><svg class="icon" width="128px" height="128.00px" viewBox="0 0 1024 1024" version="1.1" xmlns="http://www.w3.org/2000/svg"><path d="M512 64c249.6 0 448 198.4 448 448s-198.4 448-448 448-448-198.4-448-448S262.4 64 512 64M512 0C230.4 0 0 230.4 0 512s230.4 512 512 512 512-230.4 512-512S793.6 0 512 0L512 0z" fill="#FFFFFF" /><path d="M716.8 256l-128 230.4 115.2 0 0 64L544 550.4l0 44.8 153.6 0 0 64L544 659.2l0 121.6-64 0 0-121.6L332.8 659.2l0-64 147.2 0L480 550.4 332.8 550.4l0-64L448 486.4 320 256l64 0 128 230.4 12.8 0 128-230.4L716.8 256z" fill="#FFFFFF" /></svg>