<?xml version="1.0" standalone="no"?><!DOCTYPE svg PUBLIC "-//W3C//DTD SVG 1.1//EN" "http://www.w3.org/Graphics/SVG/1.1/DTD/svg11.dtd"><svg class="icon" width="128px" height="128.00px" viewBox="0 0 1024 1024" version="1.1" xmlns="http://www.w3.org/2000/svg"><path d="M395.117714 403.104914a196.549486 196.549486 0 0 0-180.106971 118.111086 30.954057 30.954057 0 0 1-27.706514 18.578286c-69.046857 1.609143-125.220571 59.011657-125.220572 128.029257a128.380343 128.380343 0 0 0 128.146286 128.2048l409.746286 0.058514a82.797714 82.797714 0 0 0 82.680685-82.7392 82.885486 82.885486 0 0 0-66.296685-81.042286 31.012571 31.012571 0 0 1-24.7808-34.026057c0-107.051886-88.151771-195.1744-196.461715-195.1744m204.858515 455.036343L190.229943 858.112A190.493257 190.493257 0 0 1 0 667.823543c0-95.875657 72.996571-176.713143 166.385371-188.591543A258.486857 258.486857 0 0 1 395.117714 341.050514c135.460571 0 246.959543 104.740571 257.667657 237.538743a145.232457 145.232457 0 0 1 91.925943 134.7584 144.939886 144.939886 0 0 1-144.735085 144.7936" fill="#819C88" /><path d="M848.340114 723.675429H806.853486a31.041829 31.041829 0 0 1 0-62.083658h41.486628a82.797714 82.797714 0 0 0 82.709943-82.709942c0-39.204571-27.882057-73.289143-66.325943-81.042286-14.453029-2.925714-24.868571-15.623314-24.868571-30.427429l0.058514-3.2768c0-107.373714-88.122514-195.496229-196.432457-195.496228a195.818057 195.818057 0 0 0-130.837943 50.029714 31.012571 31.012571 0 1 1-41.428114-46.226286A257.755429 257.755429 0 0 1 643.4816 206.584686c135.460571 0 246.930286 104.740571 257.667657 237.538743a145.261714 145.261714 0 0 1 91.984457 134.7584 144.939886 144.939886 0 0 1-144.822857 144.7936" fill="#819C88" /></svg>