<?xml version="1.0" standalone="no"?><!DOCTYPE svg PUBLIC "-//W3C//DTD SVG 1.1//EN" "http://www.w3.org/Graphics/SVG/1.1/DTD/svg11.dtd"><svg class="icon" width="128px" height="128.00px" viewBox="0 0 1024 1024" version="1.1" xmlns="http://www.w3.org/2000/svg"><path d="M152.064 372.736h752.128v295.424H152.064z" fill="#FFFFFF" /><path d="M245.76 286.72h552.96c124.928 0 225.28 100.352 225.28 225.28s-100.352 225.28-225.28 225.28H0v-204.8c0-135.168 110.592-245.76 245.76-245.76z m133.12 348.16V401.408h-30.72v178.176L235.52 401.408h-30.72V634.88h30.72V456.704L348.16 634.88h30.72z m182.272-108.544V501.76H464.896V425.984h110.592v-24.576H434.176V634.88h143.36v-24.576h-112.64v-83.968h96.256z m100.352 28.672l-34.816-151.552h-34.816l55.296 233.472h28.672l47.104-161.792 4.096-20.48 4.096 20.48 47.104 161.792h28.672l57.344-233.472H829.44l-32.768 151.552-4.096 30.72-6.144-30.72-40.96-151.552h-30.72l-40.96 151.552-6.144 30.72-6.144-30.72z" fill="#F22208" /></svg>