<?xml version="1.0" standalone="no"?><!DOCTYPE svg PUBLIC "-//W3C//DTD SVG 1.1//EN" "http://www.w3.org/Graphics/SVG/1.1/DTD/svg11.dtd"><svg class="icon" width="200px" height="200.00px" viewBox="0 0 1024 1024" version="1.1" xmlns="http://www.w3.org/2000/svg"><path d="M527.651468 49.868781c-246.934019 0-447.112154 200.178135-447.112154 447.111131S280.719496 944.092066 527.651468 944.092066s447.111131-200.178135 447.111131-447.111131C974.763622 250.046916 774.584464 49.868781 527.651468 49.868781zM527.651468 880.219339c-211.656561 0-383.238404-171.58082-383.238404-383.238404 0-211.656561 171.58082-383.238404 383.238404-383.238404 211.656561 0 383.238404 171.58082 383.238404 383.238404S739.309052 880.219339 527.651468 880.219339z"  /><path d="M717.513654 355.148649c-7.435343 0-14.365172 2.777253-19.522636 7.826246L526.028505 531.895119l-62.757323 61.426001-118.30136-118.27373c-5.17179-5.170766-12.183484-8.018627-19.741623-8.018627-8.300037 0-16.570397 3.50994-22.692838 9.632381-12.141528 12.143575-12.862959 31.179117-1.606591 42.434461L439.562201 657.694243l0.045025 0.052189c0.35918 0.416486 0.720408 0.828878 1.107217 1.222851 0.63138 0.64673 1.314948 1.287319 2.033309 1.909489 5.167696 5.14109 12.157901 7.972579 19.693528 7.972579 0.206708 0 0.412392-0.00614 0.6191-0.013303 0.187265 0.007163 0.37453 0.011256 0.563842 0.011256 7.349385 0 14.20349-2.709715 19.328207-7.635911 0.750083-0.62831 1.481747-1.297552 2.180666-1.99647 0.508583-0.508583 0.934279-0.992607 1.311879-1.423419l83.166141-81.404008 171.963537-168.921247c11.372002-11.135618 10.854209-30.178323-1.156336-42.447764C734.277456 358.747617 725.929324 355.148649 717.513654 355.148649z"  /></svg>