<?xml version="1.0" standalone="no"?><!DOCTYPE svg PUBLIC "-//W3C//DTD SVG 1.1//EN" "http://www.w3.org/Graphics/SVG/1.1/DTD/svg11.dtd"><svg class="icon" width="128px" height="128.00px" viewBox="0 0 1024 1024" version="1.1" xmlns="http://www.w3.org/2000/svg"><path d="M874.30006 149.895475A509.072346 509.072346 0 0 0 512.146773 0.00195a508.779776 508.779776 0 0 0-362.104526 149.942286A508.584729 508.584729 0 0 0 0.002438 512a508.584729 508.584729 0 0 0 149.942286 362.153287A509.023585 509.023585 0 0 0 512.000488 1023.99805c136.874145 0 265.458798-53.247797 362.299572-149.991048 199.581716-199.581716 199.630478-524.432288 0-724.111527z m-47.298868 676.958945a442.610123 442.610123 0 0 1-315.000704 130.48636 442.707647 442.707647 0 0 1-314.903182-130.437599A442.268791 442.268791 0 0 1 66.805993 512c0-118.978594 46.323633-230.789216 130.437598-314.903181a442.463838 442.463838 0 0 1 314.951944-130.340075c118.978594 0 230.789216 46.274871 314.903181 130.340075 173.59172 173.59172 173.59172 456.165881 0 629.757601z m-93.6225-189.390517l-177.00504-102.350848V256.049737a42.715266 42.715266 0 0 0-85.333008 0v298.616767c0 15.798797 19.650973 29.110746 32.426543 36.473766 3.559605 5.315027 13.311949 10.142438 19.212117 13.555758l176.029806 106.641879c20.382399 11.849098 42.471457 4.778648 54.320555-15.60375 11.751574-20.382399 0.828949-46.469918-19.650973-58.270254z" fill="#dbdbdb" /></svg>