<?xml version="1.0" standalone="no"?><!DOCTYPE svg PUBLIC "-//W3C//DTD SVG 1.1//EN" "http://www.w3.org/Graphics/SVG/1.1/DTD/svg11.dtd"><svg class="icon" width="128px" height="128.00px" viewBox="0 0 1024 1024" version="1.1" xmlns="http://www.w3.org/2000/svg"><path d="M510.220552 0a510.208036 510.208036 0 0 0-510.208036 510.208036 510.208036 510.208036 0 1 0 1020.359382 7.142913v-14.285826A510.208036 510.208036 0 0 0 510.220552 0z m173.92425 330.274669a56.746472 56.746472 0 0 1 83.844187 76.417825l-284.696084 312.077249a56.689782 56.689782 0 0 1-41.837059 18.537559h-0.05669c-15.929829 0-31.12269-6.689394-41.893748-18.424179L252.395424 557.940832a56.689782 56.689782 0 1 1 83.730808-76.474515l105.216235 115.080257 242.802335-266.271905z" fill="#819C88" /></svg>