<?xml version="1.0" standalone="no"?><!DOCTYPE svg PUBLIC "-//W3C//DTD SVG 1.1//EN" "http://www.w3.org/Graphics/SVG/1.1/DTD/svg11.dtd"><svg class="icon" width="64px" height="63.81px" viewBox="0 0 1027 1024" version="1.1" xmlns="http://www.w3.org/2000/svg"><path d="M 983.823 313.328 a 511.939 511.939 0 1 0 40.1361 198.706 a 508.788 508.788 0 0 0 -40.1361 -198.706 Z M 513.501 964.407 C 264.059 964.407 61.1278 761.476 61.1278 512.033 S 264.059 59.6598 513.501 59.6598 s 452.374 202.931 452.374 452.374 s -202.931 452.374 -452.374 452.374 Z" fill="#819c88" /><path d="M 614.771 361.697 l -58.694 104.464 q -23.4805 42.474 -28.7226 56.4578 h -1.00195 q -15.4794 -33.9937 -87.4166 -160.922 h -55.1799 l 102.649 170.332 h -84.222 v 37.6385 h 98.6704 V 621.624 h -98.6413 v 38.0451 h 98.6704 v 75.5093 h 48.9504 v -75.5093 h 95.1708 V 621.624 h -95.1708 v -51.9562 h 95.1708 V 532.029 h -81.6808 L 666.974 361.697 Z" fill="#819c88" /></svg>