<?xml version="1.0" standalone="no"?><!DOCTYPE svg PUBLIC "-//W3C//DTD SVG 1.1//EN" "http://www.w3.org/Graphics/SVG/1.1/DTD/svg11.dtd"><svg class="icon" width="128px" height="128.00px" viewBox="0 0 1024 1024" version="1.1" xmlns="http://www.w3.org/2000/svg"><path d="M909.839893 0H112.589521A29.113923 29.113923 0 0 0 83.461235 29.128286V993.492861A29.113923 29.113923 0 0 0 112.589521 1022.649872h797.250372a29.113923 29.113923 0 0 0 29.128285-29.128285V29.128286A29.113923 29.113923 0 0 0 909.839893 0zM704.907752 627.062474h-67.980363V454.332314h-84.828232v172.73016H518.374692V454.332314h-84.325525v172.73016h-41.911409V454.332314h-69.502848v172.73016h-30.665133V454.332314H212.240431v172.73016h-70.522624v-257.098774h739.51087v257.098774h-125.217157l21.472775-10.226499-77.187085-162.503661L637.44446 484.035122z m121.626393-327.57831l54.680169-131.852891v131.852891z m54.680169-241.7303v94.034954L822.440672 127.831234l-68.468707 166.022611 13.802901 5.615956h-120.103908V119.586838h-84.842595v179.897326h-31.68491V119.586838h-84.828233v179.897326h-35.778382V119.586838H320.595356v179.897326h-39.354785V119.586838H211.737724v179.897326h-70.522625V57.753864zM141.215099 697.585098h739.496508V811.51289l-55.71431-24.991724L751.343525 950.561674l30.162426 13.802901H631.828503v-171.207675H562.325656v171.207675h-43.950964v-171.207675h-84.325525v171.207675h-47.024659v-171.207675H317.579113v171.207675h-40.934721v-171.207675H207.141545v171.207675h-65.926446z m680.205796 266.779477l59.290712-132.355598v132.355598z m0 0" fill="#8a8a8a" /></svg>