<?xml version="1.0" standalone="no"?><!DOCTYPE svg PUBLIC "-//W3C//DTD SVG 1.1//EN" "http://www.w3.org/Graphics/SVG/1.1/DTD/svg11.dtd"><svg t="1592129024569" class="icon" viewBox="0 0 1024 1024" version="1.1" xmlns="http://www.w3.org/2000/svg" p-id="2108" xmlns:xlink="http://www.w3.org/1999/xlink" width="200" height="200"><defs><style type="text/css"></style></defs><path d="M512 1024C229.2736 1024 0 794.6752 0 512 0 229.2736 229.2736 0 512 0c282.6752 0 512 229.2736 512 512 0 282.6752-229.3248 512-512 512z m0-960A448 448 0 0 0 64 512 447.9488 447.9488 0 0 0 512 960 447.8976 447.8976 0 0 0 960 512 447.9488 447.9488 0 0 0 512 64z m0 640c-97.2288 0-183.808 43.9808-242.432 112.4864l-56.32-32.512a387.9936 387.9936 0 0 1 163.4304-118.9888A255.488 255.488 0 0 1 256 448c0-141.312 114.688-256 256-256 141.2608 0 256 114.688 256 256a255.488 255.488 0 0 1-120.6784 216.9856 386.3552 386.3552 0 0 1 163.4304 118.9888l-56.2688 32.512C695.7568 747.9808 609.1776 704 512 704z m192-256C704 342.016 617.984 256 512 256 406.016 256 320 342.016 320 448c0 105.984 86.016 192 192 192 105.984 0 192-86.016 192-192z" p-id="2109" fill="#D8E1DE"></path></svg>