<?xml version="1.0" standalone="no"?><!DOCTYPE svg PUBLIC "-//W3C//DTD SVG 1.1//EN" "http://www.w3.org/Graphics/SVG/1.1/DTD/svg11.dtd"><svg class="icon" width="64px" height="64.00px" viewBox="0 0 1024 1024" version="1.1" xmlns="http://www.w3.org/2000/svg"><path d="M835.2512 218.66496c95.86176 97.50016 140.2624 230.44608 124.8 366.06464-12.83072 112.62464-75.04384 215.3216-161.89952 286.34624-89.6512 73.3184-207.872 103.54176-322.00704 92.27264-112.9728-11.15136-216.6784-71.52128-289.1008-157.5424-107.6736-127.89248-127.91808-314.89024-57.18016-464.99328 71.83872-152.45824 228.27008-249.09312 395.84256-250.36288 33.00352-0.25088 33.024-51.45088 0-51.2-232.63232 1.75616-436.65408 168.79616-480.45056 398.10048-44.16 231.21408 88.02304 460.14976 304.2304 546.95424 202.89024 81.4592 436.28544 7.04512 567.5008-163.11808 147.22048-190.90944 121.23136-469.10976-45.53728-638.72512-23.17312-23.5776-59.36128 12.6464-36.1984 36.20352z" fill="#819c88" /><path d="M486.4 305.7664v264.53504c0 13.95712 11.64288 25.6 25.6 25.6h261.9904c33.01376 0 33.01376-51.2 0-51.2H512l25.6 25.6V305.7664c0-33.01888-51.2-33.01888-51.2 0z" fill="#819c88" /></svg>