<?xml version="1.0" standalone="no"?><!DOCTYPE svg PUBLIC "-//W3C//DTD SVG 1.1//EN" "http://www.w3.org/Graphics/SVG/1.1/DTD/svg11.dtd"><svg class="icon" width="200px" height="200.00px" viewBox="0 0 1024 1024" version="1.1" xmlns="http://www.w3.org/2000/svg"><path d="M512 0a512 512 0 1 1 0 1024A512 512 0 0 1 512 0z m0 64a448 448 0 1 0 0 896A448 448 0 0 0 512 64z" fill="#819c88" /><path d="M448 208a48 48 0 0 1 47.552 41.472L496 256v272H768a48 48 0 0 1 47.552 41.472L816 576a48 48 0 0 1-41.472 47.552L768 624H448a48 48 0 0 1-47.552-41.472L400 576V256A48 48 0 0 1 448 208z" fill="#819c88" /></svg>